<svg version="1" xmlns="http://www.w3.org/2000/svg" width="1066.667" height="1066.667" viewBox="0 0 800.000000 800.000000"><path d="M151.2 204.7c.2.5 1.2 2.6 2.2 4.8 1 2.2 4.5 9.6 7.7 16.4 3.2 6.8 5.9 12.5 5.9 12.6 0 .3 4.6 10.3 12.3 26.5 1.9 4.1 5.4 11.5 7.7 16.5l4.1 8.9-2.1 5.6c-6.8 17.6-9.2 31.8-8.6 51.5.5 20.2 3.8 34.2 12.1 52.1l3.3 7.3-3 8.3c-8.7 24.2-13.1 49.1-13.1 75.3-.1 10 .9 25.3 1.8 31 .3 1.6 1 5.7 1.6 9 1.6 9.7 3.8 18.3 7.6 30 3.4 10.5 5.2 15 11 27.7l2.7 5.8h392.2l2.9-6.3c1.5-3.4 3.7-8.2 4.7-10.7 1.1-2.5 2.3-5.4 2.8-6.5 3.7-8.5 10.3-33.5 11.6-44 .3-2.8.8-5.3 1-5.6.7-1.2 1.8-20.9 1.7-31.9-.2-25.1-3.9-46.7-11.8-69.9l-4.3-12.7 3.3-6.8c7.9-16.3 11.7-32.7 12.2-52.7.3-13.5-.1-18.2-3.2-34.1-.3-1.6-2.1-7.2-4-12.6l-3.5-9.9 4.1-8.9c8.9-19.3 11.1-24 11.9-25.6.5-.9 3.1-6.5 5.9-12.5 2.7-5.9 6.8-14.8 9-19.7 2.3-4.8 5.3-11.2 6.6-14.2l2.4-5.4-71.5.2-71.5.3-12.2 26.1-12.1 26.2h-82.1l-82-.1-4.7-9.9c-2.7-5.5-4.8-10.2-4.8-10.4 0-.1-3-6.5-6.6-14.1-3.6-7.6-7-14.8-7.5-16.1l-.9-2.2h-71.6c-39.3 0-71.4.3-71.2.7z"/></svg>